<svg width="472" height="213" viewBox="0 0 472 213" fill="none" xmlns="http://www.w3.org/2000/svg">
<g clip-path="url(#clip0_8_279)">
<path d="M143.953 72.1242L148.967 50.5799H160.868L155.91 75.8641H142.908L143.953 72.1242Z" fill="#DBCFBA"/>
<path d="M148.967 50.5799L151.894 75.8641H165.47L160.868 50.5799" fill="#FDF0D5"/>
<path d="M157.792 72.1242L162.796 50.5799H174.708L169.739 75.8641H156.748L157.792 72.1242Z" fill="#DBCFBA"/>
<path d="M163.645 72.2963H73.0894V75.6232H163.645V72.2963Z" fill="#FDF0D5"/>
<path d="M244.079 15.6592H222.757V75.5773H244.079V15.6592Z" fill="#DBCFBA"/>
<path d="M73.6747 72.2963H62.9333V75.6232H73.6747V72.2963Z" fill="#C4BAA9"/>
<path d="M222.768 15.6592H217.065V75.5773H222.768V15.6592Z" fill="#C4BAA9"/>
<path d="M296.305 15.6592H244.09V75.5773H296.305V15.6592Z" fill="#FDF0D5"/>
<path d="M75.7862 72.2963L78.9995 66.2965H89.4539L92.036 72.2963H75.7862Z" fill="#FDF0D5"/>
<path d="M78.9995 66.2965H82.7521L80.8815 72.2963H75.7862L78.9995 66.2965Z" fill="#C4BAA9"/>
<path d="M80.7897 66.2965V54.9851L77.106 51.0847V45.6125H91.5655V51.0847L87.8817 54.9851V66.2965H80.7897Z" fill="#C4BAA9"/>
<path d="M82.9586 66.2965V54.9851L79.2749 51.0847V45.6125H91.6573V51.0847L87.9736 54.9851V66.2965H82.9586Z" fill="#FDF0D5"/>
<path d="M102.089 72.2963L105.291 66.2965H115.745L118.327 72.2963H102.089Z" fill="#FDF0D5"/>
<path d="M105.291 66.2965H109.055L107.173 72.2963H102.089L105.291 66.2965Z" fill="#C4BAA9"/>
<path d="M107.092 66.2965V54.9851L103.409 51.0847V45.6125H117.857V51.0847L114.184 54.9851V66.2965H107.092Z" fill="#C4BAA9"/>
<path d="M109.261 66.2965V54.9851L105.566 51.0847V45.6125H117.948V51.0847L114.276 54.9851V66.2965H109.261Z" fill="#FDF0D5"/>
<path d="M162.796 50.5799L165.722 75.8641H179.31L174.708 50.5799" fill="#FDF0D5"/>
<path d="M151.366 46.84L156.381 25.2842H168.281L163.324 50.5799H150.322L151.366 46.84Z" fill="#DBCFBA"/>
<path d="M156.381 25.2842L159.307 50.5799H172.883L168.281 25.2842" fill="#FDF0D5"/>
<path d="M165.309 46.84L170.324 25.2842H182.224L177.255 50.5799H164.265L165.309 46.84Z" fill="#DBCFBA"/>
<path d="M170.324 25.2842L173.239 50.5799H186.826L182.224 25.2842" fill="#FDF0D5"/>
<path d="M158.045 21.5444L163.06 0H174.96L170.003 25.2842H157.001L158.045 21.5444Z" fill="#DBCFBA"/>
<path d="M163.06 0L165.986 25.2842H179.562L174.96 0" fill="#FDF0D5"/>
<path d="M171.804 72.1242L176.819 50.5799H188.72L183.762 75.8641H170.76L171.804 72.1242Z" fill="#DBCFBA"/>
<path d="M176.819 50.5799L179.734 75.8641H193.321L188.72 50.5799" fill="#FDF0D5"/>
<path d="M310.604 202.962L310.662 92.7049H286.78V79.4434H350.701V92.7049H326.946L326.888 202.962H310.604Z" fill="#FDF0D5"/>
<path d="M405.624 213V125.021H419.728L420.577 130.631C423.067 128.417 425.798 126.719 428.782 125.526C431.754 124.333 435.254 123.737 439.282 123.737C447.637 123.737 454.098 126.134 458.642 130.941C463.187 135.748 465.459 143.583 465.459 154.47C465.459 165.357 463.026 173.445 458.16 178.756C453.294 184.068 446.684 186.729 438.319 186.729C431.881 186.729 426.418 185.192 421.92 182.14V212.989H405.635L405.624 213ZM434.21 174.122C439.03 174.122 442.691 172.55 445.193 169.395C447.683 166.252 448.934 161.319 448.934 154.608C448.934 147.897 447.809 143.491 445.548 140.646C443.299 137.801 439.684 136.367 434.704 136.367C429.723 136.367 425.454 138.203 421.92 141.851V169.521C423.607 170.875 425.397 171.988 427.279 172.837C429.172 173.686 431.479 174.122 434.21 174.122Z" fill="#C4BAA9"/>
<path d="M405.624 213V125.021H419.728L420.577 130.631C423.067 128.417 425.798 126.719 428.782 125.526C431.754 124.333 435.254 123.737 439.282 123.737C447.637 123.737 454.098 126.134 458.642 130.941C463.187 135.748 465.459 143.583 465.459 154.47C465.459 165.357 463.026 173.445 458.16 178.756C453.294 184.068 446.684 186.729 438.319 186.729C431.881 186.729 426.418 185.192 421.92 182.14V212.989H405.635L405.624 213ZM434.21 174.122C439.03 174.122 442.691 172.55 445.193 169.395C447.683 166.252 448.934 161.319 448.934 154.608C448.934 147.897 447.809 143.491 445.548 140.646C443.299 137.801 439.684 136.367 434.704 136.367C429.723 136.367 425.454 138.203 421.92 141.851V169.521C423.607 170.875 425.397 171.988 427.279 172.837C429.172 173.686 431.479 174.122 434.21 174.122Z" fill="#C4BAA9"/>
<path d="M412.177 213V125.021H426.28L427.13 130.631C429.62 128.417 432.351 126.719 435.335 125.526C438.307 124.333 441.807 123.737 445.835 123.737C454.19 123.737 460.65 126.134 465.195 130.941C469.739 135.748 472.011 143.583 472.011 154.47C472.011 165.357 469.579 173.445 464.713 178.756C459.847 184.068 453.237 186.729 444.871 186.729C438.433 186.729 432.971 185.192 428.472 182.14V212.989H412.188L412.177 213ZM440.763 174.122C445.583 174.122 449.243 172.55 451.745 169.395C454.235 166.252 455.486 161.319 455.486 154.608C455.486 147.897 454.362 143.491 452.101 140.646C449.852 137.801 446.237 136.367 441.256 136.367C436.276 136.367 432.007 138.203 428.472 141.851V169.521C430.159 170.875 431.949 171.988 433.831 172.837C435.725 173.686 438.032 174.122 440.763 174.122Z" fill="#FDF0D5"/>
<path d="M356.909 186.741C353.283 186.741 349.932 186.029 346.845 184.63C343.746 183.23 341.256 181.142 339.363 178.378C337.469 175.613 336.528 172.148 336.528 167.984C336.528 162.03 338.525 157.281 342.496 153.701C346.478 150.122 352.365 148.344 360.157 148.344H377.038V146.692C377.038 142.952 376.051 140.314 374.088 138.788C372.115 137.262 368.155 136.493 362.211 136.493C355.704 136.493 349.427 137.56 343.391 139.683V127.568C346.042 126.467 349.278 125.561 353.099 124.826C356.909 124.104 361.075 123.737 365.573 123.737C374.18 123.737 380.825 125.584 385.53 129.278C390.235 132.972 392.587 138.903 392.587 147.071V185.444H378.484L377.634 179.961C375.385 182.083 372.608 183.735 369.314 184.928C366.021 186.11 361.878 186.718 356.898 186.718L356.909 186.741ZM361.373 175.383C364.988 175.383 368.121 174.752 370.783 173.479C373.446 172.206 375.523 170.588 377.061 168.638V159.07H360.535C354.178 159.07 351.011 161.835 351.011 167.353C351.011 172.871 354.465 175.383 361.385 175.383H361.373Z" fill="#C4BAA9"/>
<path d="M343.391 139.694L346.615 139.683V138.49L343.391 139.694Z" fill="#C4BAA9"/>
<path d="M356.909 186.741C353.283 186.741 349.932 186.029 346.845 184.63C343.746 183.23 341.256 181.142 339.363 178.378C337.469 175.613 336.528 172.148 336.528 167.984C336.528 162.03 338.525 157.281 342.496 153.701C346.478 150.122 352.365 148.344 360.157 148.344H377.038V146.692C377.038 142.952 376.051 140.314 374.088 138.788C372.115 137.262 368.155 136.493 362.211 136.493C355.704 136.493 349.427 137.56 343.391 139.683V127.568C346.042 126.467 349.278 125.561 353.099 124.826C356.909 124.104 361.075 123.737 365.573 123.737C374.18 123.737 380.825 125.584 385.53 129.278C390.235 132.972 392.587 138.903 392.587 147.071V185.444H378.484L377.634 179.961C375.385 182.083 372.608 183.735 369.314 184.928C366.021 186.11 361.878 186.718 356.898 186.718L356.909 186.741ZM361.373 175.383C364.988 175.383 368.121 174.752 370.783 173.479C373.446 172.206 375.523 170.588 377.061 168.638V159.07H360.535C354.178 159.07 351.011 161.835 351.011 167.353C351.011 172.871 354.465 175.383 361.385 175.383H361.373Z" fill="#C4BAA9"/>
<path d="M343.391 139.694L349.829 139.683V137.044L343.391 139.694Z" fill="#C4BAA9"/>
<path d="M363.336 186.741C359.709 186.741 356.358 186.029 353.271 184.63C350.173 183.23 347.683 181.142 345.789 178.378C343.896 175.613 342.955 172.148 342.955 167.984C342.955 162.03 344.951 157.281 348.922 153.701C352.904 150.122 358.791 148.344 366.583 148.344H383.464V146.692C383.464 142.952 382.477 140.314 380.515 138.788C378.541 137.262 374.582 136.493 368.637 136.493C362.131 136.493 355.853 137.56 349.817 139.683V127.568C352.468 126.467 355.704 125.561 359.526 124.826C363.336 124.104 367.501 123.737 372 123.737C380.607 123.737 387.251 125.584 391.956 129.278C396.661 132.972 399.014 138.903 399.014 147.071V185.444H384.91L384.061 179.961C381.812 182.083 379.035 183.735 375.741 184.928C372.447 186.11 368.305 186.718 363.324 186.718L363.336 186.741ZM367.8 175.383C371.415 175.383 374.547 174.752 377.21 173.479C379.861 172.206 381.949 170.588 383.487 168.638V159.07H366.962C360.604 159.07 357.437 161.835 357.437 167.353C357.437 172.871 360.891 175.383 367.811 175.383H367.8Z" fill="#FDF0D5"/>
<path d="M316.595 92.705H310.639V202.962H316.595V92.705Z" fill="#C4BAA9"/>
<path d="M160.306 136.367C157.815 136.367 155.463 136.746 153.248 137.514C151.045 138.283 149.174 139.384 147.648 140.83V168.626C149.254 170.416 151.159 171.77 153.374 172.699C155.578 173.628 157.942 174.11 160.432 174.11C165.653 174.11 169.337 172.492 171.46 169.257C173.595 166.022 174.662 161.181 174.662 154.722C174.662 148.264 173.514 143.273 171.219 140.509C168.924 137.744 165.286 136.367 160.306 136.367Z" fill="#821419"/>
<path d="M76.6125 167.353C76.6125 172.71 80.0667 175.383 86.9866 175.383C90.6015 175.383 93.7344 174.752 96.3968 173.479C99.0477 172.206 101.136 170.588 102.674 168.638V159.07H86.1489C79.7913 159.07 76.624 161.835 76.624 167.353H76.6125Z" fill="#821419"/>
<path d="M46.718 79.2025V192.568C46.718 198.316 51.1247 202.962 56.5528 202.962H300.724V79.2025H46.718ZM118.442 185.467H104.338L103.489 179.984C101.24 182.106 98.4624 183.758 95.1689 184.951C91.8753 186.133 87.7326 186.741 82.7521 186.741C79.1257 186.741 75.7748 186.029 72.6878 184.63C69.5893 183.23 67.0991 181.142 65.2055 178.378C63.312 175.613 62.371 172.148 62.371 167.984C62.371 162.03 64.3678 157.281 68.3384 153.701C72.3205 150.122 78.2076 148.344 85.9997 148.344H102.881V146.692C102.881 142.952 101.894 140.314 99.9313 138.788C97.9575 137.262 93.9984 136.493 88.0539 136.493C81.5471 136.493 75.2698 137.56 69.2336 139.683V127.568C71.8845 126.467 75.1206 125.561 78.9421 124.826C82.7521 124.104 86.9178 123.737 91.4163 123.737C100.023 123.737 106.668 125.584 111.373 129.278C116.078 132.972 118.43 138.903 118.43 147.071V185.444L118.442 185.467ZM184.347 178.894C179.642 184.125 173.273 186.741 165.229 186.741C161.201 186.741 157.701 186.167 154.728 185.02C151.756 183.873 149.025 182.152 146.523 179.857L145.674 185.467H131.57V99.5193H147.854V128.337C150.184 126.811 152.8 125.664 155.692 124.895C158.584 124.138 161.602 123.748 164.735 123.748C172.94 123.748 179.424 126.192 184.21 131.079C188.995 135.966 191.394 143.847 191.394 154.734C191.394 165.621 189.041 173.663 184.336 178.894H184.347ZM229.39 184.825C226.337 186.087 222.757 186.729 218.66 186.729C213.106 186.729 209.066 185.376 206.542 182.657C204.017 179.938 202.743 175.601 202.743 169.647V99.5193H219.027V168.248C219.027 170.37 219.429 171.839 220.232 172.653C221.036 173.468 222.206 173.869 223.732 173.869C225.821 173.869 227.714 173.571 229.401 172.974V184.836L229.39 184.825ZM292.702 161.238H251.332C252.215 166.08 254.327 169.395 257.666 171.185C260.994 172.974 265.722 173.869 271.839 173.869C274.892 173.869 278.013 173.571 281.192 172.974C284.371 172.378 287.079 171.621 289.328 170.68V182.921C286.677 184.194 283.579 185.146 280.044 185.8C276.51 186.431 272.654 186.752 268.465 186.752C258.573 186.752 250.735 184.137 244.951 178.905C239.156 173.674 236.264 165.758 236.264 155.124C236.264 145.522 238.697 137.893 243.563 132.237C248.428 126.582 255.681 123.76 265.332 123.76C274.18 123.76 280.951 126.203 285.656 131.09C290.361 135.977 292.713 142.379 292.713 150.283V161.25L292.702 161.238Z" fill="#821419"/>
<path d="M265.596 136.115C260.214 136.115 256.45 137.262 254.327 139.556C252.192 141.851 251.125 145.545 251.125 150.65H278.265V147.334C278.265 143.847 277.301 141.105 275.374 139.109C273.446 137.113 270.186 136.115 265.608 136.115H265.596Z" fill="#821419"/>
<path d="M103.523 179.984H108.825L102.904 185.123L103.271 182.634L103.523 179.984Z" fill="#821419"/>
<path d="M146.317 179.846H151.871L151.55 183.769L147.269 182.278L146.317 179.846Z" fill="#821419"/>
<path d="M147.648 128.337L153.202 128.497V124.964C153.202 124.964 147.854 127.603 147.648 128.337Z" fill="#821419"/>
<path d="M49.3575 75.6232H57.9643V85.1793H46.718V78.2618C46.718 76.8048 47.9 75.6232 49.3575 75.6232Z" fill="#BA1B1D"/>
<path d="M23.8238 212.977L23.8812 92.6935H0V79.4319H52.8231V92.6935H40.1653L40.108 212.977H23.8238Z" fill="#FDF0D5"/>
<path d="M29.7568 92.705H23.8008V212.989H29.7568V92.705Z" fill="#C4BAA9"/>
<path d="M5.99037 79.4434H0V92.7049H5.99037V79.4434Z" fill="#C4BAA9"/>
<path d="M45.9836 79.4434H54.4183C55.9905 79.4434 57.2758 80.7167 57.2758 82.2999V92.7049H45.9836V79.4434Z" fill="#FDF0D5"/>
<path d="M165.871 136.367C163.381 136.367 161.029 136.746 158.814 137.514C156.61 138.283 154.74 139.384 153.214 140.83V168.626C154.82 170.416 156.725 171.77 158.94 172.699C161.143 173.628 163.507 174.11 165.998 174.11C171.219 174.11 174.903 172.492 177.026 169.257C179.16 166.022 180.228 161.181 180.228 154.722C180.228 148.264 179.08 143.273 176.785 140.509C174.49 137.744 170.852 136.367 165.871 136.367Z" fill="#BA1B1D"/>
<path d="M82.1668 167.353C82.1668 172.71 85.621 175.383 92.5409 175.383C96.1558 175.383 99.2887 174.752 101.951 173.479C104.602 172.206 106.691 170.588 108.228 168.638V159.07H91.7032C85.3456 159.07 82.1783 161.835 82.1783 167.353H82.1668Z" fill="#BA1B1D"/>
<path d="M57.0462 75.6232L57.2758 107.641V202.675C57.2758 208.365 61.6366 212.977 67.0187 212.977H296.317C301.699 212.977 306.071 208.354 306.06 202.664L305.865 85.317C305.865 79.9596 301.745 75.6347 296.684 75.6347H57.0462V75.6232ZM123.778 185.467H109.674L108.825 179.984C106.576 182.106 103.799 183.758 100.505 184.951C97.2116 186.133 93.0688 186.741 88.0883 186.741C84.462 186.741 81.111 186.029 78.024 184.63C74.9256 183.23 72.4353 181.142 70.5418 178.378C68.6483 175.613 67.7073 172.148 67.7073 167.984C67.7073 162.03 69.7041 157.281 73.6747 153.701C77.6568 150.122 83.5439 148.344 91.336 148.344H108.217V146.692C108.217 142.952 107.23 140.314 105.268 138.788C103.294 137.262 99.3346 136.493 93.3901 136.493C86.8834 136.493 80.6061 137.56 74.5698 139.683V127.568C77.2207 126.467 80.4569 125.561 84.2783 124.826C88.0883 124.104 92.254 123.737 96.7525 123.737C105.359 123.737 112.004 125.584 116.709 129.278C121.414 132.972 123.767 138.903 123.767 147.071V185.444L123.778 185.467ZM189.684 178.894C184.979 184.125 178.609 186.741 170.565 186.741C166.537 186.741 163.037 186.167 160.065 185.02C157.092 183.873 154.361 182.152 151.859 179.857L151.01 185.467H136.906V99.5193H153.191V128.337C155.52 126.811 158.137 125.664 161.029 124.895C163.92 124.138 166.939 123.748 170.071 123.748C178.277 123.748 184.761 126.192 189.546 131.079C194.331 135.966 196.73 143.847 196.73 154.734C196.73 165.621 194.377 173.663 189.672 178.894H189.684ZM234.726 184.825C231.674 186.087 228.093 186.729 223.996 186.729C218.442 186.729 214.403 185.376 211.878 182.657C209.342 179.938 208.079 175.601 208.079 169.647V99.5193H224.364V168.248C224.364 170.37 224.765 171.839 225.569 172.653C226.372 173.468 227.542 173.869 229.069 173.869C231.157 173.869 233.051 173.571 234.738 172.974V184.836L234.726 184.825ZM298.038 161.238H256.668C257.552 166.08 259.663 169.395 263.003 171.185C266.331 172.974 271.059 173.869 277.175 173.869C280.228 173.869 283.349 173.571 286.528 172.974C289.707 172.378 292.415 171.621 294.664 170.68V182.921C292.013 184.194 288.915 185.146 285.38 185.8C281.846 186.431 277.99 186.752 273.801 186.752C263.909 186.752 256.071 184.137 250.287 178.905C244.492 173.674 241.6 165.758 241.6 155.124C241.6 145.522 244.033 137.893 248.899 132.237C253.765 126.582 261.017 123.76 270.668 123.76C279.516 123.76 286.287 126.203 290.992 131.09C295.697 135.977 298.05 142.379 298.05 150.283V161.25L298.038 161.238Z" fill="#BA1B1D"/>
<path d="M271.15 136.115C265.768 136.115 262.004 137.262 259.881 139.556C257.747 141.851 256.679 145.545 256.679 150.65H283.82V147.334C283.82 143.847 282.856 141.105 280.928 139.109C279 137.113 275.741 136.115 271.162 136.115H271.15Z" fill="#BA1B1D"/>
</g>
<defs>
<clipPath id="clip0_8_279">
<rect width="472" height="213" fill="white"/>
</clipPath>
</defs>
</svg>
