<svg width="91" height="105" viewBox="0 0 91 105" fill="none" xmlns="http://www.w3.org/2000/svg">
<circle cx="46" cy="38" r="37" stroke="#C4BAA9" stroke-width="2"/>
<path d="M34.5 36.5C39.8195 36.5 44.125 32.1386 44.125 26.75C44.125 21.3614 39.8195 17 34.5 17C29.1805 17 24.875 21.3614 24.875 26.75C24.875 32.1386 29.1805 36.5 34.5 36.5ZM41.1 39.2857H40.3867C38.5992 40.1562 36.6141 40.6786 34.5 40.6786C32.3859 40.6786 30.4094 40.1562 28.6133 39.2857H27.9C22.4344 39.2857 18 43.7777 18 49.3143V51.8214C18 54.1283 19.8477 56 22.125 56H46.875C49.1523 56 51 54.1283 51 51.8214V49.3143C51 43.7777 46.5656 39.2857 41.1 39.2857ZM59.25 36.5C63.8047 36.5 67.5 32.7567 67.5 28.1429C67.5 23.529 63.8047 19.7857 59.25 19.7857C54.6953 19.7857 51 23.529 51 28.1429C51 32.7567 54.6953 36.5 59.25 36.5ZM63.375 39.2857H63.0484C61.8539 39.7036 60.5906 39.9821 59.25 39.9821C57.9094 39.9821 56.6461 39.7036 55.4516 39.2857H55.125C53.3719 39.2857 51.7563 39.7993 50.3383 40.6263C52.4352 42.9158 53.75 45.954 53.75 49.3143V52.6571C53.75 52.8487 53.707 53.0315 53.6984 53.2143H68.875C71.1523 53.2143 73 51.3426 73 49.0357C73 43.6471 68.6945 39.2857 63.375 39.2857Z" fill="#C4BAA9"/>
<path d="M4.68 90.144H13.344V92.208H4.68V90.144ZM4.92 99H2.52V82.2H14.376V84.288H4.92V99ZM17.184 99V86.28H19.392V89.736L19.176 88.872C19.528 87.992 20.12 87.32 20.952 86.856C21.784 86.392 22.808 86.16 24.024 86.16V88.392C23.928 88.376 23.832 88.368 23.736 88.368C23.656 88.368 23.576 88.368 23.496 88.368C22.264 88.368 21.288 88.736 20.568 89.472C19.848 90.208 19.488 91.272 19.488 92.664V99H17.184ZM26.8637 99V86.28H29.1677V99H26.8637ZM28.0157 83.832C27.5677 83.832 27.1917 83.688 26.8877 83.4C26.5997 83.112 26.4557 82.76 26.4557 82.344C26.4557 81.912 26.5997 81.552 26.8877 81.264C27.1917 80.976 27.5677 80.832 28.0157 80.832C28.4637 80.832 28.8317 80.976 29.1197 81.264C29.4237 81.536 29.5757 81.88 29.5757 82.296C29.5757 82.728 29.4317 83.096 29.1437 83.4C28.8557 83.688 28.4797 83.832 28.0157 83.832ZM39.2308 99.144C37.8708 99.144 36.6708 98.864 35.6308 98.304C34.6068 97.744 33.8068 96.976 33.2308 96C32.6708 95.024 32.3908 93.904 32.3908 92.64C32.3908 91.376 32.6628 90.256 33.2068 89.28C33.7668 88.304 34.5268 87.544 35.4868 87C36.4628 86.44 37.5588 86.16 38.7748 86.16C40.0068 86.16 41.0948 86.432 42.0388 86.976C42.9828 87.52 43.7188 88.288 44.2468 89.28C44.7908 90.256 45.0628 91.4 45.0628 92.712C45.0628 92.808 45.0548 92.92 45.0388 93.048C45.0388 93.176 45.0308 93.296 45.0148 93.408H34.1908V91.752H43.8148L42.8788 92.328C42.8948 91.512 42.7268 90.784 42.3748 90.144C42.0228 89.504 41.5348 89.008 40.9108 88.656C40.3028 88.288 39.5908 88.104 38.7748 88.104C37.9748 88.104 37.2628 88.288 36.6388 88.656C36.0148 89.008 35.5268 89.512 35.1748 90.168C34.8228 90.808 34.6468 91.544 34.6468 92.376V92.76C34.6468 93.608 34.8388 94.368 35.2228 95.04C35.6228 95.696 36.1748 96.208 36.8788 96.576C37.5828 96.944 38.3908 97.128 39.3028 97.128C40.0548 97.128 40.7348 97 41.3428 96.744C41.9668 96.488 42.5108 96.104 42.9748 95.592L44.2468 97.08C43.6708 97.752 42.9508 98.264 42.0868 98.616C41.2388 98.968 40.2868 99.144 39.2308 99.144ZM55.0541 86.16C56.0941 86.16 57.0061 86.36 57.7901 86.76C58.5901 87.16 59.2141 87.768 59.6621 88.584C60.1101 89.4 60.3341 90.432 60.3341 91.68V99H58.0301V91.944C58.0301 90.712 57.7261 89.784 57.1181 89.16C56.5261 88.536 55.6861 88.224 54.5981 88.224C53.7821 88.224 53.0701 88.384 52.4621 88.704C51.8541 89.024 51.3821 89.496 51.0461 90.12C50.7261 90.744 50.5661 91.52 50.5661 92.448V99H48.2621V86.28H50.4701V89.712L50.1101 88.8C50.5261 87.968 51.1661 87.32 52.0301 86.856C52.8941 86.392 53.9021 86.16 55.0541 86.16ZM69.8541 99.144C68.6221 99.144 67.5181 98.872 66.5421 98.328C65.5821 97.784 64.8221 97.024 64.2621 96.048C63.7021 95.072 63.4221 93.936 63.4221 92.64C63.4221 91.344 63.7021 90.216 64.2621 89.256C64.8221 88.28 65.5821 87.52 66.5421 86.976C67.5181 86.432 68.6221 86.16 69.8541 86.16C70.9261 86.16 71.8941 86.4 72.7581 86.88C73.6221 87.36 74.3101 88.08 74.8221 89.04C75.3501 90 75.6141 91.2 75.6141 92.64C75.6141 94.08 75.3581 95.28 74.8461 96.24C74.3501 97.2 73.6701 97.928 72.8061 98.424C71.9421 98.904 70.9581 99.144 69.8541 99.144ZM70.0461 97.128C70.8461 97.128 71.5661 96.944 72.2061 96.576C72.8621 96.208 73.3741 95.688 73.7421 95.016C74.1261 94.328 74.3181 93.536 74.3181 92.64C74.3181 91.728 74.1261 90.944 73.7421 90.288C73.3741 89.616 72.8621 89.096 72.2061 88.728C71.5661 88.36 70.8461 88.176 70.0461 88.176C69.2301 88.176 68.5021 88.36 67.8621 88.728C67.2221 89.096 66.7101 89.616 66.3261 90.288C65.9421 90.944 65.7501 91.728 65.7501 92.64C65.7501 93.536 65.9421 94.328 66.3261 95.016C66.7101 95.688 67.2221 96.208 67.8621 96.576C68.5021 96.944 69.2301 97.128 70.0461 97.128ZM74.3901 99V95.568L74.5341 92.616L74.2941 89.664V81.192H76.5981V99H74.3901ZM84.6054 99.144C83.5494 99.144 82.5414 99 81.5814 98.712C80.6374 98.424 79.8934 98.072 79.3494 97.656L80.3094 95.832C80.8534 96.2 81.5254 96.512 82.3254 96.768C83.1254 97.024 83.9414 97.152 84.7734 97.152C85.8454 97.152 86.6134 97 87.0774 96.696C87.5574 96.392 87.7974 95.968 87.7974 95.424C87.7974 95.024 87.6534 94.712 87.3654 94.488C87.0774 94.264 86.6934 94.096 86.2134 93.984C85.7494 93.872 85.2294 93.776 84.6534 93.696C84.0774 93.6 83.5014 93.488 82.9254 93.36C82.3494 93.216 81.8214 93.024 81.3414 92.784C80.8614 92.528 80.4774 92.184 80.1894 91.752C79.9014 91.304 79.7574 90.712 79.7574 89.976C79.7574 89.208 79.9734 88.536 80.4054 87.96C80.8374 87.384 81.4454 86.944 82.2294 86.64C83.0294 86.32 83.9734 86.16 85.0614 86.16C85.8934 86.16 86.7334 86.264 87.5814 86.472C88.4454 86.664 89.1494 86.944 89.6934 87.312L88.7094 89.136C88.1334 88.752 87.5334 88.488 86.9094 88.344C86.2854 88.2 85.6614 88.128 85.0374 88.128C84.0294 88.128 83.2774 88.296 82.7814 88.632C82.2854 88.952 82.0374 89.368 82.0374 89.88C82.0374 90.312 82.1814 90.648 82.4694 90.888C82.7734 91.112 83.1574 91.288 83.6214 91.416C84.1014 91.544 84.6294 91.656 85.2054 91.752C85.7814 91.832 86.3574 91.944 86.9334 92.088C87.5094 92.216 88.0294 92.4 88.4934 92.64C88.9734 92.88 89.3574 93.216 89.6454 93.648C89.9494 94.08 90.1014 94.656 90.1014 95.376C90.1014 96.144 89.8774 96.808 89.4294 97.368C88.9814 97.928 88.3494 98.368 87.5334 98.688C86.7174 98.992 85.7414 99.144 84.6054 99.144Z" fill="#C4BAA9"/>
</svg>
