<svg width="78" height="104" viewBox="0 0 78 104" fill="none" xmlns="http://www.w3.org/2000/svg">
<path d="M10.2212 98.192C8.92519 98.192 7.73319 97.984 6.64519 97.568C5.55719 97.136 4.61319 96.536 3.81319 95.768C3.01319 94.984 2.38919 94.072 1.94119 93.032C1.49319 91.992 1.26919 90.848 1.26919 89.6C1.26919 88.352 1.49319 87.208 1.94119 86.168C2.38919 85.128 3.01319 84.224 3.81319 83.456C4.62919 82.672 5.58119 82.072 6.66919 81.656C7.75719 81.224 8.95719 81.008 10.2692 81.008C11.5972 81.008 12.8132 81.224 13.9172 81.656C15.0212 82.088 15.9572 82.736 16.7252 83.6L15.2372 85.088C14.5492 84.416 13.7972 83.928 12.9812 83.624C12.1812 83.304 11.3092 83.144 10.3652 83.144C9.40519 83.144 8.50919 83.304 7.67719 83.624C6.86119 83.944 6.14919 84.392 5.54119 84.968C4.94919 85.544 4.48519 86.232 4.14919 87.032C3.82919 87.816 3.66919 88.672 3.66919 89.6C3.66919 90.512 3.82919 91.368 4.14919 92.168C4.48519 92.952 4.94919 93.64 5.54119 94.232C6.14919 94.808 6.86119 95.256 7.67719 95.576C8.49319 95.896 9.38119 96.056 10.3412 96.056C11.2372 96.056 12.0932 95.92 12.9092 95.648C13.7412 95.36 14.5092 94.888 15.2132 94.232L16.5812 96.056C15.7492 96.76 14.7732 97.296 13.6532 97.664C12.5492 98.016 11.4052 98.192 10.2212 98.192ZM14.2772 95.744V89.504H16.5812V96.056L14.2772 95.744ZM20.8403 98V80.192H23.1443V98H20.8403ZM32.9914 98.144C31.7114 98.144 30.5754 97.864 29.5834 97.304C28.5914 96.744 27.8074 95.976 27.2314 95C26.6554 94.008 26.3674 92.888 26.3674 91.64C26.3674 90.376 26.6554 89.256 27.2314 88.28C27.8074 87.304 28.5914 86.544 29.5834 86C30.5754 85.44 31.7114 85.16 32.9914 85.16C34.2554 85.16 35.3834 85.44 36.3754 86C37.3834 86.544 38.1674 87.304 38.7274 88.28C39.3034 89.24 39.5914 90.36 39.5914 91.64C39.5914 92.904 39.3034 94.024 38.7274 95C38.1674 95.976 37.3834 96.744 36.3754 97.304C35.3834 97.864 34.2554 98.144 32.9914 98.144ZM32.9914 96.128C33.8074 96.128 34.5354 95.944 35.1754 95.576C35.8314 95.208 36.3434 94.688 36.7114 94.016C37.0794 93.328 37.2634 92.536 37.2634 91.64C37.2634 90.728 37.0794 89.944 36.7114 89.288C36.3434 88.616 35.8314 88.096 35.1754 87.728C34.5354 87.36 33.8074 87.176 32.9914 87.176C32.1754 87.176 31.4474 87.36 30.8074 87.728C30.1674 88.096 29.6554 88.616 29.2714 89.288C28.8874 89.944 28.6954 90.728 28.6954 91.64C28.6954 92.536 28.8874 93.328 29.2714 94.016C29.6554 94.688 30.1674 95.208 30.8074 95.576C31.4474 95.944 32.1754 96.128 32.9914 96.128ZM49.5218 98.144C48.4338 98.144 47.4498 97.904 46.5698 97.424C45.7058 96.928 45.0178 96.2 44.5058 95.24C44.0098 94.28 43.7617 93.08 43.7617 91.64C43.7617 90.2 44.0178 89 44.5298 88.04C45.0578 87.08 45.7538 86.36 46.6178 85.88C47.4978 85.4 48.4658 85.16 49.5218 85.16C50.7698 85.16 51.8738 85.432 52.8338 85.976C53.7938 86.52 54.5538 87.28 55.1138 88.256C55.6738 89.216 55.9538 90.344 55.9538 91.64C55.9538 92.936 55.6738 94.072 55.1138 95.048C54.5538 96.024 53.7938 96.784 52.8338 97.328C51.8738 97.872 50.7698 98.144 49.5218 98.144ZM42.7778 98V80.192H45.0818V88.664L44.8418 91.616L44.9858 94.568V98H42.7778ZM49.3298 96.128C50.1458 96.128 50.8738 95.944 51.5138 95.576C52.1698 95.208 52.6818 94.688 53.0498 94.016C53.4338 93.328 53.6258 92.536 53.6258 91.64C53.6258 90.728 53.4338 89.944 53.0498 89.288C52.6818 88.616 52.1698 88.096 51.5138 87.728C50.8738 87.36 50.1458 87.176 49.3298 87.176C48.5298 87.176 47.8018 87.36 47.1458 87.728C46.5058 88.096 45.9938 88.616 45.6098 89.288C45.2418 89.944 45.0578 90.728 45.0578 91.64C45.0578 92.536 45.2418 93.328 45.6098 94.016C45.9938 94.688 46.5058 95.208 47.1458 95.576C47.8018 95.944 48.5298 96.128 49.3298 96.128ZM66.9159 98V95.312L66.7959 94.808V90.224C66.7959 89.248 66.5079 88.496 65.9319 87.968C65.3719 87.424 64.5239 87.152 63.3879 87.152C62.6359 87.152 61.8999 87.28 61.1799 87.536C60.4599 87.776 59.8519 88.104 59.3559 88.52L58.3959 86.792C59.0519 86.264 59.8359 85.864 60.7479 85.592C61.6759 85.304 62.6439 85.16 63.6519 85.16C65.3959 85.16 66.7399 85.584 67.6839 86.432C68.6279 87.28 69.0999 88.576 69.0999 90.32V98H66.9159ZM62.7399 98.144C61.7959 98.144 60.9639 97.984 60.2439 97.664C59.5399 97.344 58.9959 96.904 58.6119 96.344C58.2279 95.768 58.0359 95.12 58.0359 94.4C58.0359 93.712 58.1959 93.088 58.5159 92.528C58.8519 91.968 59.3879 91.52 60.1239 91.184C60.8759 90.848 61.8839 90.68 63.1479 90.68H67.1799V92.336H63.2439C62.0919 92.336 61.3159 92.528 60.9159 92.912C60.5159 93.296 60.3159 93.76 60.3159 94.304C60.3159 94.928 60.5639 95.432 61.0599 95.816C61.5559 96.184 62.2439 96.368 63.1239 96.368C63.9879 96.368 64.7399 96.176 65.3799 95.792C66.0359 95.408 66.5079 94.848 66.7959 94.112L67.2519 95.696C66.9479 96.448 66.4119 97.048 65.6439 97.496C64.8759 97.928 63.9079 98.144 62.7399 98.144ZM73.3637 98V80.192H75.6677V98H73.3637Z" fill="#FDF0D5"/>
<path d="M38.5 0C17.7888 0 1 16.7888 1 37.5C1 58.2112 17.7888 75 38.5 75C59.2112 75 76 58.2112 76 37.5C76 16.7888 59.2112 0 38.5 0ZM50.943 54.0726C50.3533 54.6593 49.7349 55.2747 49.2329 55.7782C48.7807 56.2319 48.4617 56.7913 48.2999 57.3977C48.0716 58.2535 47.8871 59.1184 47.5786 59.9486L44.9491 67.0328C42.8684 67.4864 40.7152 67.7419 38.5 67.7419V63.6018C38.7555 61.6935 37.3448 58.1189 35.0781 55.8523C34.1709 54.9451 33.6613 53.7142 33.6613 52.4304V47.5902C33.6613 45.8301 32.7132 44.2122 31.1724 43.3609C28.9995 42.1588 25.9088 40.4788 23.7918 39.4128C22.0559 38.5388 20.4501 37.4259 19.006 36.124L18.8851 36.0151C17.8524 35.083 16.9356 34.0301 16.1542 32.879C14.7359 30.7969 12.4254 27.372 10.9239 25.1462C14.0192 18.2661 19.5973 12.7409 26.5287 9.73942L30.1593 11.5554C31.7681 12.3599 33.6613 11.191 33.6613 9.39163V7.68296C34.8695 7.4879 36.0988 7.36391 37.3493 7.31704L41.6285 11.5963C42.5736 12.5413 42.5736 14.0731 41.6285 15.0181L40.9194 15.7258L39.3558 17.2893C38.8841 17.7611 38.8841 18.5277 39.3558 18.9995L40.065 19.7087C40.5368 20.1804 40.5368 20.9471 40.065 21.4188L38.8553 22.6285C38.6282 22.8552 38.3204 22.9825 37.9995 22.9824H36.6401C36.3256 22.9824 36.0232 23.1048 35.7964 23.3256L34.2964 24.7848C34.1125 24.9638 33.9903 25.1967 33.9473 25.4497C33.9044 25.7027 33.943 25.9629 34.0575 26.1925L36.4148 30.9088C36.817 31.7132 36.2319 32.6598 35.3337 32.6598H34.4808C34.189 32.6598 33.9078 32.5539 33.6885 32.3634L32.2853 31.1447C31.9677 30.8692 31.584 30.6811 31.1717 30.5989C30.7594 30.5167 30.3329 30.5433 29.934 30.6759L25.2208 32.247C24.8609 32.367 24.548 32.5971 24.3263 32.9049C24.1045 33.2127 23.9853 33.5824 23.9854 33.9617C23.9854 34.6467 24.3725 35.2712 24.9849 35.5781L26.6603 36.4158C28.0832 37.128 29.6527 37.4985 31.2434 37.4985C32.8342 37.4985 34.6593 41.625 36.0822 42.3372H46.1754C47.4592 42.3372 48.6885 42.8468 49.5973 43.754L51.6673 45.8241C52.5321 46.6892 53.0178 47.8624 53.0176 49.0857C53.0173 50.0126 52.8339 50.9303 52.4779 51.7861C52.1218 52.6419 51.6003 53.4189 50.943 54.0726ZM64.0544 40.2596C63.1789 40.0403 62.4153 39.5035 61.9148 38.752L59.1961 34.6739C58.7983 34.0781 58.5859 33.3777 58.5859 32.6613C58.5859 31.9449 58.7983 31.2445 59.1961 30.6487L62.1583 26.2061C62.5091 25.6815 62.9899 25.255 63.5554 24.9738L65.5181 23.9924C67.5625 28.063 68.7419 32.6416 68.7419 37.5C68.7419 38.811 68.63 40.0948 68.4667 41.3619L64.0544 40.2596Z" fill="#FDF0D5"/>
</svg>
