<svg width="27" height="38" viewBox="0 0 27 38" fill="none" xmlns="http://www.w3.org/2000/svg">
<path d="M13.2723 0.193481C6.01835 0.193481 0.151489 6.06034 0.151489 13.3143C0.151489 16.5757 1.08869 19.631 2.79439 22.3863C4.57506 25.2729 6.91806 27.7471 8.71748 30.6337C9.59845 32.0395 10.2357 33.3515 10.9105 34.8698C11.3979 35.9007 11.7915 37.6814 13.2723 37.6814C14.753 37.6814 15.1467 35.9007 15.6153 34.8698C16.3088 33.3515 16.9273 32.0395 17.8083 30.6337C19.6077 27.7658 21.9507 25.2916 23.7314 22.3863C25.4558 19.631 26.393 16.5757 26.393 13.3143C26.393 6.06034 20.5262 0.193481 13.2723 0.193481ZM13.2723 18.4688C10.6856 18.4688 8.58627 16.3695 8.58627 13.7829C8.58627 11.1962 10.6856 9.09686 13.2723 9.09686C15.8589 9.09686 17.9583 11.1962 17.9583 13.7829C17.9583 16.3695 15.8589 18.4688 13.2723 18.4688Z" fill="#0A2239"/>
</svg>
