<?xml version="1.0" encoding="UTF-8"?><svg id="Layer_2" xmlns="http://www.w3.org/2000/svg" viewBox="0 0 200 200"><g id="Layer_1-2"><rect width="200" height="200" rx="51.62" ry="51.62" style="fill:#fdf0d6;"/><rect x="77.72" y="36.93" width="17.89" height="129.96" style="fill:#9a3341;"/><path d="M126.65,166.89l.08-129.96h-31.11v-15.63h83.28v15.63h-30.95l-.08,129.96h-21.21Z" style="fill:#2b4e6b;"/><path d="M54.71,178.7l.07-141.77H21.1v-15.63H95.62v15.63h-17.86l-.07,141.77h-22.97Z" style="fill:#2b4e6b;"/><rect x="49.16" y="36.93" width="11.37" height="141.77" style="fill:#143854;"/><rect x="123.67" y="36.93" width="11.37" height="129.96" style="fill:#143854;"/><rect x="21.1" y="21.3" width="11.39" height="15.63" style="fill:#143854;"/><path d="M75.29,21.3h10.82c1.37,0,2.49,1.11,2.49,2.49v13.14h-13.3v-15.63h0Z" style="fill:#2b4e6b;"/><rect x="90.47" y="21.3" width="37.24" height="157.41" style="fill:#cc3e45;"/></g></svg>