<?xml version="1.0" encoding="UTF-8"?><svg id="Layer_2" xmlns="http://www.w3.org/2000/svg" viewBox="0 0 411.3 185.67"><g id="TableTop_light"><polygon points="125.44 62.87 129.81 44.09 140.18 44.09 135.86 66.13 124.53 66.13 125.44 62.87" style="fill:#163854;"/><polyline points="129.81 44.09 132.36 66.13 144.19 66.13 140.18 44.09" style="fill:#2c4e6b;"/><polygon points="137.5 62.87 141.86 44.09 152.24 44.09 147.91 66.13 136.59 66.13 137.5 62.87" style="fill:#163854;"/><rect x="63.69" y="63.02" width="78.91" height="2.9" style="fill:#2c4e6b;"/><rect x="194.11" y="13.65" width="18.58" height="52.23" style="fill:#163854;"/><rect x="54.84" y="63.02" width="9.36" height="2.9" style="fill:#163854;"/><rect x="189.15" y="13.65" width="4.97" height="52.23" style="fill:#0a2239;"/><rect x="212.7" y="13.65" width="45.5" height="52.23" style="fill:#2c4e6b;"/><polygon points="66.04 63.02 68.84 57.79 77.95 57.79 80.2 63.02 66.04 63.02" style="fill:#2c4e6b;"/><polygon points="68.84 57.79 72.11 57.79 70.48 63.02 66.04 63.02 68.84 57.79" style="fill:#163854;"/><polygon points="70.4 57.79 70.4 47.93 67.19 44.53 67.19 39.76 79.79 39.76 79.79 44.53 76.58 47.93 76.58 57.79 70.4 57.79" style="fill:#163854;"/><polygon points="72.29 57.79 72.29 47.93 69.08 44.53 69.08 39.76 79.87 39.76 79.87 44.53 76.66 47.93 76.66 57.79 72.29 57.79" style="fill:#2c4e6b;"/><polygon points="88.96 63.02 91.75 57.79 100.86 57.79 103.11 63.02 88.96 63.02" style="fill:#2c4e6b;"/><polygon points="91.75 57.79 95.03 57.79 93.39 63.02 88.96 63.02 91.75 57.79" style="fill:#163854;"/><polygon points="93.32 57.79 93.32 47.93 90.11 44.53 90.11 39.76 102.7 39.76 102.7 44.53 99.5 47.93 99.5 57.79 93.32 57.79" style="fill:#163854;"/><polygon points="95.21 57.79 95.21 47.93 91.99 44.53 91.99 39.76 102.78 39.76 102.78 44.53 99.58 47.93 99.58 57.79 95.21 57.79" style="fill:#2c4e6b;"/><polyline points="141.86 44.09 144.41 66.13 156.25 66.13 152.24 44.09" style="fill:#2c4e6b;"/><polygon points="131.9 40.83 136.27 22.04 146.64 22.04 142.32 44.09 130.99 44.09 131.9 40.83" style="fill:#163854;"/><polyline points="136.27 22.04 138.82 44.09 150.65 44.09 146.64 22.04" style="fill:#2c4e6b;"/><polygon points="144.05 40.83 148.42 22.04 158.79 22.04 154.46 44.09 143.14 44.09 144.05 40.83" style="fill:#163854;"/><polyline points="148.42 22.04 150.96 44.09 162.8 44.09 158.79 22.04" style="fill:#2c4e6b;"/><polygon points="137.72 18.78 142.09 0 152.46 0 148.14 22.04 136.81 22.04 137.72 18.78" style="fill:#163854;"/><polyline points="142.09 0 144.64 22.04 156.47 22.04 152.46 0" style="fill:#2c4e6b;"/><polygon points="149.71 62.87 154.08 44.09 164.45 44.09 160.13 66.13 148.8 66.13 149.71 62.87" style="fill:#163854;"/><polyline points="154.08 44.09 156.62 66.13 168.46 66.13 164.45 44.09" style="fill:#2c4e6b;"/></g><g id="Tap_light"><path d="M270.66,176.92l.05-96.11h-20.81v-11.56h55.7v11.56h-20.7l-.05,96.11h-14.19Z" style="fill:#2c4e6b;"/><path d="M353.46,185.67V108.98h12.29l.74,4.89c2.17-1.93,4.55-3.41,7.15-4.45,2.59-1.04,5.64-1.56,9.15-1.56,7.28,0,12.91,2.09,16.87,6.28,3.96,4.19,5.94,11.02,5.94,20.51s-2.12,16.54-6.36,21.17c-4.24,4.63-10,6.95-17.29,6.95-5.61,0-10.37-1.34-14.29-4v26.89h-14.19Zm24.91-33.89c4.2,0,7.39-1.37,9.57-4.12,2.17-2.74,3.26-7.04,3.26-12.89s-.98-9.69-2.95-12.17c-1.96-2.48-5.11-3.73-9.45-3.73s-8.06,1.6-11.14,4.78v24.12c1.47,1.18,3.03,2.15,4.67,2.89,1.65,.74,3.66,1.12,6.04,1.12Z" style="fill:#c4baa9;"/><path d="M353.46,185.67V108.98h12.29l.74,4.89c2.17-1.93,4.55-3.41,7.15-4.45,2.59-1.04,5.64-1.56,9.15-1.56,7.28,0,12.91,2.09,16.87,6.28,3.96,4.19,5.94,11.02,5.94,20.51s-2.12,16.54-6.36,21.17c-4.24,4.63-10,6.95-17.29,6.95-5.61,0-10.37-1.34-14.29-4v26.89h-14.19Zm24.91-33.89c4.2,0,7.39-1.37,9.57-4.12,2.17-2.74,3.26-7.04,3.26-12.89s-.98-9.69-2.95-12.17c-1.96-2.48-5.11-3.73-9.45-3.73s-8.06,1.6-11.14,4.78v24.12c1.47,1.18,3.03,2.15,4.67,2.89,1.65,.74,3.66,1.12,6.04,1.12Z" style="fill:#163854;"/><path d="M359.17,185.67V108.98h12.29l.74,4.89c2.17-1.93,4.55-3.41,7.15-4.45,2.59-1.04,5.64-1.56,9.15-1.56,7.28,0,12.91,2.09,16.87,6.28,3.96,4.19,5.94,11.02,5.94,20.51s-2.12,16.54-6.36,21.17c-4.24,4.63-10,6.95-17.29,6.95-5.61,0-10.37-1.34-14.29-4v26.89h-14.19Zm24.91-33.89c4.2,0,7.39-1.37,9.57-4.12,2.17-2.74,3.26-7.04,3.26-12.89s-.98-9.69-2.95-12.17c-1.96-2.48-5.11-3.73-9.45-3.73s-8.06,1.6-11.14,4.78v24.12c1.47,1.18,3.03,2.15,4.67,2.89,1.65,.74,3.66,1.12,6.04,1.12Z" style="fill:#2c4e6b;"/><g><path d="M311.01,162.78c-3.16,0-6.08-.62-8.77-1.84-2.7-1.22-4.87-3.04-6.52-5.45s-2.47-5.43-2.47-9.06c0-5.19,1.74-9.33,5.2-12.45,3.47-3.12,8.6-4.67,15.39-4.67h14.71v-1.44c0-3.26-.86-5.56-2.57-6.89-1.72-1.33-5.17-2-10.35-2-5.67,0-11.14,.93-16.4,2.78v-10.56c2.31-.96,5.13-1.75,8.46-2.39,3.32-.63,6.95-.95,10.87-.95,7.5,0,13.29,1.61,17.39,4.83,4.1,3.22,6.15,8.39,6.15,15.51v33.45h-12.29l-.74-4.78c-1.96,1.85-4.38,3.29-7.25,4.33-2.87,1.03-6.48,1.56-10.82,1.56Zm3.89-9.9c3.15,0,5.88-.55,8.2-1.66s4.13-2.52,5.47-4.22v-8.34h-14.4c-5.54,0-8.3,2.41-8.3,7.22s3.01,7,9.04,7Z" style="fill:#c4baa9;"/><polygon points="299.23 121.77 302.04 121.76 302.04 120.72 299.23 121.77" style="fill:#c4baa9;"/></g><g><path d="M311.01,162.78c-3.16,0-6.08-.62-8.77-1.84-2.7-1.22-4.87-3.04-6.52-5.45-1.65-2.41-2.47-5.43-2.47-9.06,0-5.19,1.74-9.33,5.2-12.45,3.47-3.12,8.6-4.67,15.39-4.67h14.71v-1.44c0-3.26-.86-5.56-2.57-6.89-1.72-1.33-5.17-2-10.35-2-5.67,0-11.14,.93-16.4,2.78v-10.56c2.31-.96,5.13-1.75,8.46-2.39,3.32-.63,6.95-.95,10.87-.95,7.5,0,13.29,1.61,17.39,4.83,4.1,3.22,6.15,8.39,6.15,15.51v33.45h-12.29l-.74-4.78c-1.96,1.85-4.38,3.29-7.25,4.33-2.87,1.03-6.48,1.56-10.82,1.56Zm3.89-9.9c3.15,0,5.88-.55,8.2-1.66s4.13-2.52,5.47-4.22v-8.34h-14.4c-5.54,0-8.3,2.41-8.3,7.22s3.01,7,9.04,7Z" style="fill:#163854;"/><polygon points="299.23 121.77 304.84 121.76 304.84 119.46 299.23 121.77" style="fill:#051726;"/></g><path d="M316.61,162.78c-3.16,0-6.08-.62-8.77-1.84-2.7-1.22-4.87-3.04-6.52-5.45-1.65-2.41-2.47-5.43-2.47-9.06,0-5.19,1.74-9.33,5.2-12.45,3.47-3.12,8.6-4.67,15.39-4.67h14.71v-1.44c0-3.26-.86-5.56-2.57-6.89-1.72-1.33-5.17-2-10.35-2-5.67,0-11.14,.93-16.4,2.78v-10.56c2.31-.96,5.13-1.75,8.46-2.39,3.32-.63,6.95-.95,10.87-.95,7.5,0,13.29,1.61,17.39,4.83,4.1,3.22,6.15,8.39,6.15,15.51v33.45h-12.29l-.74-4.78c-1.96,1.85-4.38,3.29-7.25,4.33-2.87,1.03-6.48,1.56-10.82,1.56Zm3.89-9.9c3.15,0,5.88-.55,8.2-1.66,2.31-1.11,4.13-2.52,5.47-4.22v-8.34h-14.4c-5.54,0-8.3,2.41-8.3,7.22s3.01,7,9.04,7Z" style="fill:#2c4e6b;"/><rect x="270.69" y="80.81" width="5.19" height="96.11" style="fill:#163854;"/></g><g id="Cloth_Back_light"><g><path d="M139.69,118.87c-2.17,0-4.22,.33-6.15,1-1.92,.67-3.55,1.63-4.88,2.89v24.23c1.4,1.56,3.06,2.74,4.99,3.55,1.92,.81,3.98,1.23,6.15,1.23,4.55,0,7.76-1.41,9.61-4.23,1.86-2.82,2.79-7.04,2.79-12.67s-1-9.98-3-12.39c-2-2.41-5.17-3.61-9.51-3.61Z" style="fill:#993340;"/><path d="M66.76,145.88c0,4.67,3.01,7,9.04,7,3.15,0,5.88-.55,8.2-1.66,2.31-1.11,4.13-2.52,5.47-4.22v-8.34h-14.4c-5.54,0-8.3,2.41-8.3,7.22Z" style="fill:#993340;"/><path d="M40.71,69.04v98.82c0,5.01,3.84,9.06,8.57,9.06h212.77V69.04H40.71Zm62.5,92.63h-12.29l-.74-4.78c-1.96,1.85-4.38,3.29-7.25,4.33-2.87,1.03-6.48,1.56-10.82,1.56-3.16,0-6.08-.62-8.77-1.84-2.7-1.22-4.87-3.04-6.52-5.45-1.65-2.41-2.47-5.43-2.47-9.06,0-5.19,1.74-9.33,5.2-12.45,3.47-3.12,8.6-4.67,15.39-4.67h14.71v-1.44c0-3.26-.86-5.56-2.57-6.89-1.72-1.33-5.17-2-10.35-2-5.67,0-11.14,.93-16.4,2.78v-10.56c2.31-.96,5.13-1.75,8.46-2.39,3.32-.63,6.95-.95,10.87-.95,7.5,0,13.29,1.61,17.39,4.83,4.1,3.22,6.15,8.39,6.15,15.51v33.45Zm57.43-5.73c-4.1,4.56-9.65,6.84-16.66,6.84-3.51,0-6.56-.5-9.15-1.5-2.59-1-4.97-2.5-7.15-4.5l-.74,4.89h-12.29V86.75h14.19v25.12c2.03-1.33,4.31-2.33,6.83-3,2.52-.66,5.15-1,7.88-1,7.15,0,12.8,2.13,16.97,6.39,4.17,4.26,6.26,11.13,6.26,20.62s-2.05,16.5-6.15,21.06Zm39.25,5.17c-2.66,1.1-5.78,1.66-9.35,1.66-4.84,0-8.36-1.18-10.56-3.55s-3.31-6.15-3.31-11.34v-61.13h14.19v59.91c0,1.85,.35,3.13,1.05,3.84,.7,.71,1.72,1.06,3.05,1.06,1.82,0,3.47-.26,4.94-.78v10.34Zm55.17-20.56h-36.05c.77,4.22,2.61,7.11,5.52,8.67,2.9,1.56,7.02,2.34,12.35,2.34,2.66,0,5.38-.26,8.15-.78,2.77-.52,5.13-1.18,7.09-2v10.67c-2.31,1.11-5.01,1.94-8.09,2.51-3.08,.55-6.44,.83-10.09,.83-8.62,0-15.45-2.28-20.49-6.84-5.05-4.56-7.57-11.46-7.57-20.73,0-8.37,2.12-15.02,6.36-19.95,4.24-4.93,10.56-7.39,18.97-7.39,7.71,0,13.61,2.13,17.71,6.39,4.1,4.26,6.15,9.84,6.15,16.73v9.56Z" style="fill:#993340;"/><path d="M231.44,118.65c-4.69,0-7.97,1-9.82,3-1.86,2-2.79,5.22-2.79,9.67h23.65v-2.89c0-3.04-.84-5.43-2.52-7.17s-4.52-2.61-8.51-2.61Z" style="fill:#993340;"/><polygon points="90.21 156.89 94.83 156.89 89.67 161.37 89.99 159.2 90.21 156.89" style="fill:#993340;"/><polygon points="127.5 156.77 132.34 156.77 132.06 160.19 128.33 158.89 127.5 156.77" style="fill:#993340;"/><path d="M128.66,111.87l4.84,.14v-3.08s-4.66,2.3-4.84,2.94Z" style="fill:#993340;"/><path d="M43.01,65.92h7.5v8.33h-9.8v-6.03c0-1.27,1.03-2.3,2.3-2.3Z" style="fill:#c03637;"/></g></g><g id="T_light"><path d="M20.76,185.65l.05-104.85H0v-11.56H46.03v11.56h-11.03l-.05,104.85h-14.19Z" style="fill:#2c4e6b;"/><rect x="20.74" y="80.81" width="5.19" height="104.85" style="fill:#163854;"/><rect y="69.25" width="5.22" height="11.56" style="fill:#163854;"/><path d="M40.07,69.25h7.35c1.37,0,2.49,1.11,2.49,2.49v9.07h-9.84v-11.56h0Z" style="fill:#2c4e6b;"/></g><g id="Cloth_Front_light"><g><path d="M144.54,118.87c-2.17,0-4.22,.33-6.15,1-1.92,.67-3.55,1.63-4.88,2.89v24.23c1.4,1.56,3.06,2.74,4.99,3.55,1.92,.81,3.98,1.23,6.15,1.23,4.55,0,7.76-1.41,9.61-4.23,1.86-2.82,2.79-7.04,2.79-12.67s-1-9.98-3-12.39c-2-2.41-5.17-3.61-9.51-3.61Z" style="fill:#cc3e45;"/><path d="M71.6,145.88c0,4.67,3.01,7,9.04,7,3.15,0,5.88-.55,8.2-1.66,2.31-1.11,4.13-2.52,5.47-4.22v-8.34h-14.4c-5.54,0-8.3,2.41-8.3,7.22Z" style="fill:#cc3e45;"/><path d="M49.71,65.92l.2,27.91v82.84c0,4.96,3.8,8.98,8.49,8.98h199.81c4.69,0,8.5-4.03,8.49-8.99l-.17-102.29c0-4.67-3.59-8.44-8-8.44H49.71Zm58.15,95.75h-12.29l-.74-4.78c-1.96,1.85-4.38,3.29-7.25,4.33-2.87,1.03-6.48,1.56-10.82,1.56-3.16,0-6.08-.62-8.77-1.84-2.7-1.22-4.87-3.04-6.52-5.45s-2.47-5.43-2.47-9.06c0-5.19,1.74-9.33,5.2-12.45,3.47-3.12,8.6-4.67,15.39-4.67h14.71v-1.44c0-3.26-.86-5.56-2.57-6.89-1.72-1.33-5.17-2-10.35-2-5.67,0-11.14,.93-16.4,2.78v-10.56c2.31-.96,5.13-1.75,8.46-2.39,3.32-.63,6.95-.95,10.87-.95,7.5,0,13.29,1.61,17.39,4.83,4.1,3.22,6.15,8.39,6.15,15.51v33.45Zm57.43-5.73c-4.1,4.56-9.65,6.84-16.66,6.84-3.51,0-6.56-.5-9.15-1.5-2.59-1-4.97-2.5-7.15-4.5l-.74,4.89h-12.29V86.75h14.19v25.12c2.03-1.33,4.31-2.33,6.83-3,2.52-.66,5.15-1,7.88-1,7.15,0,12.8,2.13,16.97,6.39,4.17,4.26,6.26,11.13,6.26,20.62s-2.05,16.5-6.15,21.06Zm39.25,5.17c-2.66,1.1-5.78,1.66-9.35,1.66-4.84,0-8.36-1.18-10.56-3.55-2.21-2.37-3.31-6.15-3.31-11.34v-61.13h14.19v59.91c0,1.85,.35,3.13,1.05,3.84,.7,.71,1.72,1.06,3.05,1.06,1.82,0,3.47-.26,4.94-.78v10.34Zm55.17-20.56h-36.05c.77,4.22,2.61,7.11,5.52,8.67,2.9,1.56,7.02,2.34,12.35,2.34,2.66,0,5.38-.26,8.15-.78,2.77-.52,5.13-1.18,7.09-2v10.67c-2.31,1.11-5.01,1.94-8.09,2.51-3.08,.55-6.44,.83-10.09,.83-8.62,0-15.45-2.28-20.49-6.84-5.05-4.56-7.57-11.46-7.57-20.73,0-8.37,2.12-15.02,6.36-19.95,4.24-4.93,10.56-7.39,18.97-7.39,7.71,0,13.61,2.13,17.71,6.39,4.1,4.26,6.15,9.84,6.15,16.73v9.56Z" style="fill:#cc3e45;"/><path d="M236.28,118.65c-4.69,0-7.97,1-9.82,3-1.86,2-2.79,5.22-2.79,9.67h23.65v-2.89c0-3.04-.84-5.43-2.52-7.17s-4.52-2.61-8.51-2.61Z" style="fill:#cc3e45;"/></g></g></svg>