<svg width="513" height="309" viewBox="0 0 513 309" fill="none" xmlns="http://www.w3.org/2000/svg">
<rect x="1.65869" y="1.95197" width="509.71" height="305.401" rx="19" fill="#FF8A00" stroke="#0A2239" stroke-width="2"/>
<path d="M275.258 130.113V131.222H251.828V107.792H252.937C254.102 107.792 255.219 108.255 256.043 109.079L273.971 127.007C274.795 127.831 275.258 128.948 275.258 130.113ZM250.363 137.08C247.947 137.08 245.97 135.103 245.97 132.687V107.792H209.361C206.935 107.792 204.968 109.759 204.968 112.186V197.119C204.968 199.545 206.935 201.512 209.361 201.512H270.865C273.291 201.512 275.258 199.545 275.258 197.119V137.08H250.363ZM225.569 140.009C230.421 140.009 234.355 143.942 234.355 148.795C234.355 153.647 230.421 157.581 225.569 157.581C220.716 157.581 216.783 153.647 216.783 148.795C216.783 143.942 220.716 140.009 225.569 140.009ZM263.642 183.94H216.783L216.871 175.065L224.104 167.832C224.962 166.974 226.264 167.063 227.122 167.921L234.355 175.154L253.303 156.206C254.161 155.348 255.552 155.348 256.41 156.206L263.642 163.439V183.94Z" fill="#FDF0D5"/>
<path d="M319.892 159.514H306.712V146.335C306.712 144.718 305.401 143.406 303.784 143.406H300.855C299.238 143.406 297.926 144.718 297.926 146.335V159.514H284.747C283.13 159.514 281.818 160.826 281.818 162.443V165.372C281.818 166.989 283.13 168.3 284.747 168.3H297.926V181.48C297.926 183.097 299.238 184.408 300.855 184.408H303.784C305.401 184.408 306.712 183.097 306.712 181.48V168.3H319.892C321.509 168.3 322.821 166.989 322.821 165.372V162.443C322.821 160.826 321.509 159.514 319.892 159.514Z" fill="#FDF0D5"/>
</svg>
