<?xml version="1.0" encoding="UTF-8"?><svg id="Layer_2" xmlns="http://www.w3.org/2000/svg" viewBox="0 0 117.85 93.72"><g id="Layer_1-2"><path d="M70.29,22.32v1.11h-23.43V0h1.11c1.17,0,2.28,.46,3.11,1.29l17.93,17.93c.82,.82,1.29,1.94,1.29,3.11h0Zm-24.89,6.97c-2.42,0-4.39-1.98-4.39-4.39V0H4.39C1.97,0,0,1.97,0,4.39V89.33c0,2.43,1.97,4.39,4.39,4.39h61.5c2.43,0,4.39-1.97,4.39-4.39V29.29h-24.89Zm-24.79,2.93c4.85,0,8.79,3.93,8.79,8.79s-3.93,8.79-8.79,8.79-8.79-3.93-8.79-8.79,3.93-8.79,8.79-8.79Zm38.07,43.93H11.81l.09-8.88,7.23-7.23c.86-.86,2.16-.77,3.02,.09l7.23,7.23,18.95-18.95c.86-.86,2.25-.86,3.11,0l7.23,7.23v20.5h0Z" style="fill:#fdf0d5;"/><path d="M114.92,51.72h-13.18v-13.18c0-1.62-1.31-2.93-2.93-2.93h-2.93c-1.62,0-2.93,1.31-2.93,2.93v13.18h-13.18c-1.62,0-2.93,1.31-2.93,2.93v2.93c0,1.62,1.31,2.93,2.93,2.93h13.18v13.18c0,1.62,1.31,2.93,2.93,2.93h2.93c1.62,0,2.93-1.31,2.93-2.93v-13.18h13.18c1.62,0,2.93-1.31,2.93-2.93v-2.93c0-1.62-1.31-2.93-2.93-2.93Z" style="fill:#fdf0d5;"/></g></svg>