<svg width="119" height="95" viewBox="0 0 119 95" fill="none" xmlns="http://www.w3.org/2000/svg">
<path d="M71.2576 23.1134V24.2224H47.8277V0.79248H48.9368C50.1018 0.792487 51.2192 1.2553 52.0431 2.07911L69.9708 20.0069C70.7947 20.8308 71.2576 21.9482 71.2576 23.1134V23.1134ZM46.3633 30.0799C43.9471 30.0799 41.9702 28.103 41.9702 25.6868V0.79248H5.36089C2.93461 0.79248 0.967773 2.75932 0.967773 5.1856V90.1192C0.967773 92.5455 2.93461 94.5123 5.36089 94.5123H66.8645C69.2908 94.5123 71.2576 92.5455 71.2576 90.1192V30.0799H46.3633ZM21.5687 33.0087C26.4213 33.0087 30.355 36.9423 30.355 41.7949C30.355 46.6475 26.4213 50.5811 21.5687 50.5811C16.7162 50.5811 12.7825 46.6475 12.7825 41.7949C12.7825 36.9423 16.7164 33.0087 21.5687 33.0087ZM59.6424 76.9398H12.7825L12.8713 68.0648L20.1044 60.8317C20.9621 59.974 22.2641 60.0628 23.1219 60.9205L30.355 68.1536L49.303 49.2055C50.1608 48.3478 51.5516 48.3478 52.4095 49.2055L59.6424 56.4386V76.9398V76.9398Z" fill="#FDF0D5"/>
<path d="M115.892 52.5141H102.712V39.3347C102.712 37.7175 101.401 36.406 99.7837 36.406H96.855C95.2377 36.406 93.9262 37.7175 93.9262 39.3347V52.5141H80.7469C79.1296 52.5141 77.8181 53.8256 77.8181 55.4428V58.3716C77.8181 59.9888 79.1296 61.3003 80.7469 61.3003H93.9262V74.4797C93.9262 76.0969 95.2377 77.4084 96.855 77.4084H99.7837C101.401 77.4084 102.712 76.0969 102.712 74.4797V61.3003H115.892C117.509 61.3003 118.821 59.9888 118.821 58.3716V55.4428C118.821 53.8256 117.509 52.5141 115.892 52.5141Z" fill="#FDF0D5"/>
</svg>
