<?xml version="1.0" encoding="UTF-8"?><svg id="Layer_2" xmlns="http://www.w3.org/2000/svg" width="400" height="400" viewBox="0 0 400 400"><g id="Dark"><rect width="400" height="400" style="fill:#d8d8d8;"/><polygon points="172.31 170.05 176.68 151.26 187.05 151.26 182.73 173.3 171.4 173.3 172.31 170.05" style="fill:#d6d6d6;"/><polyline points="176.68 151.26 179.23 173.3 191.06 173.3 187.05 151.26" style="fill:#fff;"/><polygon points="184.37 170.05 188.73 151.26 199.11 151.26 194.78 173.3 183.46 173.3 184.37 170.05" style="fill:#d6d6d6;"/><rect x="110.56" y="170.19" width="78.91" height="2.9" style="fill:#fff;"/><rect x="240.98" y="120.82" width="18.58" height="52.23" style="fill:#d6d6d6;"/><rect x="101.71" y="170.19" width="9.36" height="2.9" style="fill:#c1c1c1;"/><rect x="236.02" y="120.82" width="4.97" height="52.23" style="fill:#c1c1c1;"/><rect x="259.56" y="120.82" width="45.5" height="52.23" style="fill:#fff;"/><polygon points="112.91 170.19 115.71 164.97 124.82 164.97 127.07 170.19 112.91 170.19" style="fill:#fff;"/><polygon points="115.71 164.97 118.98 164.97 117.35 170.19 112.91 170.19 115.71 164.97" style="fill:#c1c1c1;"/><polygon points="117.27 164.97 117.27 155.1 114.06 151.7 114.06 146.93 126.66 146.93 126.66 151.7 123.45 155.1 123.45 164.97 117.27 164.97" style="fill:#c1c1c1;"/><polygon points="119.16 164.97 119.16 155.1 115.95 151.7 115.95 146.93 126.74 146.93 126.74 151.7 123.53 155.1 123.53 164.97 119.16 164.97" style="fill:#fff;"/><polygon points="135.83 170.19 138.62 164.97 147.73 164.97 149.98 170.19 135.83 170.19" style="fill:#fff;"/><polygon points="138.62 164.97 141.9 164.97 140.26 170.19 135.83 170.19 138.62 164.97" style="fill:#c1c1c1;"/><polygon points="140.19 164.97 140.19 155.1 136.97 151.7 136.97 146.93 149.57 146.93 149.57 151.7 146.37 155.1 146.37 164.97 140.19 164.97" style="fill:#c1c1c1;"/><polygon points="142.08 164.97 142.08 155.1 138.86 151.7 138.86 146.93 149.65 146.93 149.65 151.7 146.45 155.1 146.45 164.97 142.08 164.97" style="fill:#fff;"/><polyline points="188.73 151.26 191.28 173.3 203.12 173.3 199.11 151.26" style="fill:#fff;"/><polygon points="178.77 148 183.14 129.22 193.51 129.22 189.19 151.26 177.86 151.26 178.77 148" style="fill:#d6d6d6;"/><polyline points="183.14 129.22 185.69 151.26 197.52 151.26 193.51 129.22" style="fill:#fff;"/><polygon points="190.92 148 195.29 129.22 205.66 129.22 201.33 151.26 190.01 151.26 190.92 148" style="fill:#d6d6d6;"/><polyline points="195.29 129.22 197.83 151.26 209.67 151.26 205.66 129.22" style="fill:#fff;"/><polygon points="184.59 125.96 188.96 107.17 199.33 107.17 195.01 129.22 183.68 129.22 184.59 125.96" style="fill:#d6d6d6;"/><polyline points="188.96 107.17 191.51 129.22 203.34 129.22 199.33 107.17" style="fill:#fff;"/><polygon points="196.58 170.05 200.95 151.26 211.32 151.26 206.99 173.3 195.67 173.3 196.58 170.05" style="fill:#d6d6d6;"/><polyline points="200.95 151.26 203.49 173.3 215.33 173.3 211.32 151.26" style="fill:#fff;"/><path d="M317.53,284.09l.05-96.11h-20.81v-11.56h55.7v11.56h-20.7l-.05,96.11h-14.19Z" style="fill:#fff;"/><rect x="317.56" y="187.98" width="5.19" height="96.11" style="fill:#c1c1c1;"/><g><path d="M186.56,226.05c-2.17,0-4.22,.33-6.15,1-1.92,.67-3.55,1.63-4.88,2.89v24.23c1.4,1.56,3.06,2.74,4.99,3.55,1.92,.81,3.98,1.23,6.15,1.23,4.55,0,7.76-1.41,9.61-4.23,1.86-2.82,2.79-7.04,2.79-12.67s-1-9.98-3-12.39c-2-2.41-5.17-3.61-9.51-3.61Z" style="fill:#757575;"/><path d="M113.63,253.06c0,4.67,3.01,7,9.04,7,3.15,0,5.88-.55,8.2-1.66,2.31-1.11,4.13-2.52,5.47-4.22v-8.34h-14.4c-5.54,0-8.3,2.41-8.3,7.22Z" style="fill:#757575;"/><path d="M87.58,176.21v98.82c0,5.01,3.84,9.06,8.57,9.06h212.77v-107.88H87.58Zm62.5,92.63h-12.29l-.74-4.78c-1.96,1.85-4.38,3.29-7.25,4.33-2.87,1.03-6.48,1.56-10.82,1.56-3.16,0-6.08-.62-8.77-1.84-2.7-1.22-4.87-3.04-6.52-5.45-1.65-2.41-2.47-5.43-2.47-9.06,0-5.19,1.74-9.33,5.2-12.45,3.47-3.12,8.6-4.67,15.39-4.67h14.71v-1.44c0-3.26-.86-5.56-2.57-6.89-1.72-1.33-5.17-2-10.35-2-5.67,0-11.14,.93-16.4,2.78v-10.56c2.31-.96,5.13-1.75,8.46-2.39,3.32-.63,6.95-.95,10.87-.95,7.5,0,13.29,1.61,17.39,4.83,4.1,3.22,6.15,8.39,6.15,15.51v33.45Zm57.43-5.73c-4.1,4.56-9.65,6.84-16.66,6.84-3.51,0-6.56-.5-9.15-1.5-2.59-1-4.97-2.5-7.15-4.5l-.74,4.89h-12.29v-74.91h14.19v25.12c2.03-1.33,4.31-2.33,6.83-3,2.52-.66,5.15-1,7.88-1,7.15,0,12.8,2.13,16.97,6.39,4.17,4.26,6.26,11.13,6.26,20.62s-2.05,16.5-6.15,21.06Zm39.25,5.17c-2.66,1.1-5.78,1.66-9.35,1.66-4.84,0-8.36-1.18-10.56-3.55s-3.31-6.15-3.31-11.34v-61.13h14.19v59.91c0,1.85,.35,3.13,1.05,3.84,.7,.71,1.72,1.06,3.05,1.06,1.82,0,3.47-.26,4.94-.78v10.34Zm55.17-20.56h-36.05c.77,4.22,2.61,7.11,5.52,8.67,2.9,1.56,7.02,2.34,12.35,2.34,2.66,0,5.38-.26,8.15-.78,2.77-.52,5.13-1.18,7.09-2v10.67c-2.31,1.11-5.01,1.94-8.09,2.51-3.08,.55-6.44,.83-10.09,.83-8.62,0-15.45-2.28-20.49-6.84-5.05-4.56-7.57-11.46-7.57-20.73,0-8.37,2.12-15.02,6.36-19.95,4.24-4.93,10.56-7.39,18.97-7.39,7.71,0,13.61,2.13,17.71,6.39,4.1,4.26,6.15,9.84,6.15,16.73v9.56Z" style="fill:#757575;"/><path d="M278.31,225.83c-4.69,0-7.97,1-9.82,3-1.86,2-2.79,5.22-2.79,9.67h23.65v-2.89c0-3.04-.84-5.43-2.52-7.17s-4.52-2.61-8.51-2.61Z" style="fill:#757575;"/><polygon points="137.08 264.06 141.7 264.06 136.54 268.54 136.86 266.37 137.08 264.06" style="fill:#757575;"/><polygon points="174.37 263.95 179.21 263.95 178.93 267.37 175.2 266.07 174.37 263.95" style="fill:#757575;"/><path d="M175.53,219.05l4.84,.14v-3.08s-4.66,2.3-4.84,2.94Z" style="fill:#757575;"/><path d="M89.88,173.09h7.5v8.33h-9.8v-6.03c0-1.27,1.03-2.3,2.3-2.3Z" style="fill:#b2b2b2;"/></g><path d="M67.63,292.83l.05-104.85h-20.81v-11.56h46.03v11.56h-11.03l-.05,104.85h-14.19Z" style="fill:#fff;"/><rect x="67.61" y="187.98" width="5.19" height="104.85" style="fill:#c1c1c1;"/><rect x="46.87" y="176.42" width="5.22" height="11.56" style="fill:#c1c1c1;"/><path d="M86.94,176.42h7.35c1.37,0,2.49,1.11,2.49,2.49v9.07h-9.84v-11.56h0Z" style="fill:#fff;"/><path d="M96.44,173.09h209.04c4.38,0,7.94,3.56,7.94,7.94v103.57c0,4.54-3.69,8.23-8.23,8.23H105.36c-4.92,0-8.92-4-8.92-8.92v-110.81h0Z" style="fill:#b2b2b2;"/></g></svg>